<svg class="logo" version="1.1" viewBox="0 0 67.703 42.194" xmlns="http://www.w3.org/2000/svg" aria-label="Fürter Liza">
      <path d="m67.69 12.05-14.76-12.05-37.95 0.08-14.98 11.9 33.46 30.2zm-32.7 11.44 1.37 8.87-2.2 5.98-0.36 0.39-2.44-6.84 1.44-8.36zm-11.55-0.01 1.03-0.07 1.27 0.1 1.82 4.21-0.09 0.12-3.45-3.55zm25.24 0.01-4.66 7.72-8.07 7.18 2.13-5.72 8.92-9.28zm-4.23 0-4.29 4.51 1.83-4.29 0.34-0.34zm-4.25 0-2.47 5.69-1.05-5.69 0.1-0.1zm-12.54-0.01 3.23-0.12 0.17 0.17-0.97 5.68-2.45-5.5zm-8.48 0 1.64-0.12 8.97 9.51 1.95 5.5-7.94-7.14zm25.64-10.53-0.83 2.08-8.62 0.14-0.33-1.46v-0.78l6.82-0.12zm19.8-0.15-16.06 14.25 2.15-3.56 1.71-0.13 1.13-1.09 0.41-4.09 3.22-5.27zm-18.73 2.21 0.89-2.21h7.86l-2.15 2.25-4.62 0.08zm-13.02-2.1-0.37 2.12-8.58 0.1-1.02-2.18 9.85-0.15zm-19.79-0.11 7.96 0.11 0.95 2.15-6.67 0.11zm-9.86 0 7.44 0.11 3.35 5.52 0.12 3.64 1.29 1.29 1.59 0.03 2.4 3.91zm41.97-5.47 0.12-0.14 7.63 3.86-6.06 0.02zm-22.64 0.02-1.58 3.72-6.04-0.02 0.02-0.1 7.44-3.76zm22.29 3.45-0.04 0.27-8.12-0.02 5.82-4.13 0.58-0.22zm-21.96 0.2 1.61-3.81 0.48-0.49 5.58 3.9 0.46 0.45zm34.5-5.28 6.97 5.33-6.75 0.02-0.27-3.83zm-46.95 0-0.12 4.22-0.29 1.13-6.41-0.02 1.1-0.98zm35.15-0.56 6.74-3.21 0.25 0.06 2.86 2.27 0.37 6.1-10.2-5.01zm-4.2 0.14-0.2 0.52-7.31 5.05-7.53-5.37 7.16-3.57 0.77 0.02zm-18.99 0.03-10.05 5.05h-0.32l0.37-6.18 2.98-2.27 1.59 0.63zm15.47-3.6h10.73l-5.07 2.55-0.58-0.08zm-18.75 0h10.75l-4.89 2.38-0.72 0.16z" fill="#999" fill-rule="evenodd" opacity=".55"></path>
      <path d="m16.304 21.368h-0.74051v-3.5485h2.0327v0.61626h-1.2922v0.91445h1.2027v0.61626h-1.2027zm5.4718-1.2524q0 0.36777-0.164 0.66596-0.15904 0.29322-0.48705 0.46717-0.32304 0.16898-0.82003 0.16898-0.70572 0-1.0735-0.35783-0.36777-0.3628-0.36777-0.95421v-2.2861h0.75045v2.1718q0 0.43735 0.17892 0.61626t0.53178 0.17892q0.36777 0 0.53178-0.19382 0.16898-0.19382 0.16898-0.60632v-2.1669h0.75045zm-2.2911-2.9919q0-0.17394 0.0994-0.24849 0.0994-0.07952 0.23855-0.07952 0.13916 0 0.23855 0.07952 0.10437 0.07455 0.10437 0.24849 0 0.164-0.10437 0.24352-0.0994 0.07952-0.23855 0.07952-0.13916 0-0.23855-0.07952-0.0994-0.07952-0.0994-0.24352zm0.97906 0q0-0.17394 0.0994-0.24849 0.0994-0.07952 0.24352-0.07952 0.13916 0 0.23855 0.07952 0.10437 0.07455 0.10437 0.24849 0 0.164-0.10437 0.24352-0.0994 0.07952-0.23855 0.07952-0.14413 0-0.24352-0.07952-0.0994-0.07952-0.0994-0.24352zm3.8119 0.69578q0.7256 0 1.0685 0.2634 0.34789 0.2634 0.34789 0.80015 0 0.24352-0.09443 0.42741-0.08946 0.17892-0.24352 0.30813-0.1491 0.12425-0.32304 0.20376l1.0437 1.5456h-0.83494l-0.84488-1.3617h-0.40256v1.3617h-0.75045v-3.5485zm-0.05467 0.61626h-0.22861v0.95918h0.24352q0.37274 0 0.53178-0.12425 0.164-0.12425 0.164-0.36777 0-0.25346-0.17394-0.35783-0.16898-0.10934-0.53674-0.10934zm4.2641 2.9322h-0.75045v-2.9223h-0.96415v-0.6262h2.6788v0.6262h-0.96415zm4.1498 0h-2.0426v-3.5485h2.0426v0.61626h-1.2922v0.78027h1.2027v0.61626h-1.2027v0.91445h1.2922zm2.3706-3.5485q0.7256 0 1.0685 0.2634 0.34789 0.2634 0.34789 0.80015 0 0.24352-0.09443 0.42741-0.08946 0.17892-0.24352 0.30813-0.1491 0.12425-0.32304 0.20376l1.0437 1.5456h-0.83494l-0.84488-1.3617h-0.40256v1.3617h-0.75045v-3.5485zm-0.05467 0.61626h-0.22861v0.95918h0.24353q0.37274 0 0.53178-0.12425 0.164-0.12425 0.164-0.36777 0-0.25346-0.17394-0.35783-0.16898-0.10934-0.53674-0.10934zm4.786 2.9322v-3.5485h0.75045v2.9272h1.4413v0.62123zm4.7313 0h-1.6152v-0.42741l0.43238-0.19879v-2.2961l-0.43238-0.1988v-0.42741h1.6152v0.42741l-0.43238 0.1988v2.2961l0.43238 0.19879zm3.5137 0h-2.639v-0.48705l1.6997-2.4402h-1.655v-0.62123h2.5495v0.48705l-1.6997 2.4402h1.7444zm3.3348 0-0.25843-0.84488h-1.2922l-0.25843 0.84488h-0.81009l1.2524-3.5634h0.91942l1.2574 3.5634zm-0.69578-2.301q-0.02485-0.08449-0.06461-0.2137-0.03976-0.12922-0.07952-0.2634-0.03976-0.13419-0.06461-0.23358-0.02485 0.0994-0.06958 0.24849-0.03976 0.14413-0.07952 0.27831-0.03479 0.12922-0.05467 0.18388l-0.25346 0.825h0.92439z" dominant-baseline="central" stroke-width=".88748" aria-label="FÜRTER LIZA"></path>
    </svg>